<svg xmlns="http://www.w3.org/2000/svg" xmlns:xlink="http://www.w3.org/1999/xlink" width="498" zoomAndPan="magnify" viewBox="0 0 373.5 538.499983" height="718" preserveAspectRatio="xMidYMid meet" version="1.0"><defs><clipPath id="596dfafa26"><path d="M 0 0.109375 L 187 0.109375 L 187 431 L 0 431 Z M 0 0.109375 " clip-rule="nonzero"/></clipPath><clipPath id="48296762b5"><path d="M 186 107 L 372.25 107 L 372.25 537.890625 L 186 537.890625 Z M 186 107 " clip-rule="nonzero"/></clipPath></defs><g clip-path="url(#596dfafa26)"><path fill="#ff914d" d="M 186.207031 0.21875 L 186.207031 107.722656 L 93.105469 161.476562 L 93.105469 268.980469 L 186.207031 322.734375 L 186.207031 430.238281 L 0 322.734375 L 0 107.722656 Z M 186.207031 0.21875 " fill-opacity="1" fill-rule="evenodd"/></g><g clip-path="url(#48296762b5)"><path fill="#ff751f" d="M 186.207031 215.226562 L 279.3125 268.980469 L 279.3125 376.488281 L 186.207031 430.238281 L 186.207031 537.742188 L 372.414062 430.238281 L 372.414062 215.226562 L 186.207031 107.722656 Z M 186.207031 215.226562 " fill-opacity="1" fill-rule="evenodd"/></g><path fill="#ffbd59" d="M 244.394531 33.8125 L 244.394531 114.441406 L 314.230469 154.757812 L 314.230469 74.128906 Z M 244.394531 33.8125 " fill-opacity="1" fill-rule="evenodd"/></svg>