<svg xmlns="http://www.w3.org/2000/svg" xmlns:xlink="http://www.w3.org/1999/xlink" width="972" zoomAndPan="magnify" viewBox="0 0 729 296.250004" height="395" preserveAspectRatio="xMidYMid meet" version="1.0"><defs><g/><clipPath id="688fd7fb30"><path d="M 0.921875 0 L 94 0 L 94 213 L 0.921875 213 Z M 0.921875 0 " clip-rule="nonzero"/></clipPath><clipPath id="a383fc2348"><path d="M 93 53 L 184.953125 53 L 184.953125 266.324219 L 93 266.324219 Z M 93 53 " clip-rule="nonzero"/></clipPath></defs><g clip-path="url(#688fd7fb30)"><path fill="#ff914d" d="M 93.054688 0.0546875 L 93.054688 53.246094 L 46.988281 79.84375 L 46.988281 133.035156 L 93.054688 159.632812 L 93.054688 212.824219 L 0.921875 159.632812 L 0.921875 53.246094 Z M 93.054688 0.0546875 " fill-opacity="1" fill-rule="evenodd"/></g><g clip-path="url(#a383fc2348)"><path fill="#ff751f" d="M 93.054688 106.441406 L 139.121094 133.035156 L 139.121094 186.230469 L 93.054688 212.824219 L 93.054688 266.015625 L 185.1875 212.824219 L 185.1875 106.441406 L 93.054688 53.246094 Z M 93.054688 106.441406 " fill-opacity="1" fill-rule="evenodd"/></g><path fill="#ffbd59" d="M 121.84375 16.675781 L 121.84375 56.570312 L 156.398438 76.519531 L 156.398438 36.625 Z M 121.84375 16.675781 " fill-opacity="1" fill-rule="evenodd"/><g fill="#ffffff" fill-opacity="1"><g transform="translate(188.976102, 209.569746)"><g><path d="M 30.640625 -63.265625 L 30.640625 0 L 7.421875 0 L 7.421875 -101.953125 L 30.640625 -101.953125 L 71.1875 -38.6875 L 71.421875 -38.6875 L 71.421875 -101.953125 L 94.65625 -101.953125 L 94.65625 0 L 71.421875 0 L 30.890625 -63.265625 Z M 30.640625 -63.265625 "/></g></g></g><g fill="#ffffff" fill-opacity="1"><g transform="translate(291.051402, 209.569746)"><g><path d="M 44.984375 -103.8125 C 50.503906 -103.8125 55.898438 -103.003906 61.171875 -101.390625 C 66.441406 -99.785156 70.351562 -98.203125 72.90625 -96.640625 L 76.625 -94.171875 L 67.21875 -75.625 C 66.476562 -76.125 65.445312 -76.765625 64.125 -77.546875 C 62.8125 -78.328125 60.34375 -79.375 56.71875 -80.6875 C 53.09375 -82.007812 49.71875 -82.671875 46.59375 -82.671875 C 42.71875 -82.671875 39.726562 -81.847656 37.625 -80.203125 C 35.53125 -78.554688 34.484375 -76.332031 34.484375 -73.53125 C 34.484375 -72.125 34.972656 -70.820312 35.953125 -69.625 C 36.941406 -68.4375 38.628906 -67.160156 41.015625 -65.796875 C 43.410156 -64.441406 45.515625 -63.351562 47.328125 -62.53125 C 49.140625 -61.707031 51.941406 -60.472656 55.734375 -58.828125 C 62.328125 -56.023438 67.945312 -52.210938 72.59375 -47.390625 C 77.25 -42.566406 79.578125 -37.109375 79.578125 -31.015625 C 79.578125 -25.171875 78.523438 -20.0625 76.421875 -15.6875 C 74.328125 -11.320312 71.445312 -7.90625 67.78125 -5.4375 C 64.113281 -2.96875 60.054688 -1.132812 55.609375 0.0625 C 51.160156 1.257812 46.34375 1.859375 41.15625 1.859375 C 36.707031 1.859375 32.335938 1.40625 28.046875 0.5 C 23.765625 -0.40625 20.179688 -1.535156 17.296875 -2.890625 C 14.410156 -4.253906 11.816406 -5.59375 9.515625 -6.90625 C 7.210938 -8.226562 5.523438 -9.34375 4.453125 -10.25 L 2.84375 -11.609375 L 14.453125 -31.140625 C 15.441406 -30.316406 16.800781 -29.265625 18.53125 -27.984375 C 20.257812 -26.710938 23.328125 -25.003906 27.734375 -22.859375 C 32.148438 -20.722656 36.046875 -19.65625 39.421875 -19.65625 C 49.222656 -19.65625 54.125 -22.988281 54.125 -29.65625 C 54.125 -31.0625 53.773438 -32.359375 53.078125 -33.546875 C 52.378906 -34.742188 51.144531 -35.9375 49.375 -37.125 C 47.601562 -38.320312 46.035156 -39.269531 44.671875 -39.96875 C 43.316406 -40.675781 41.09375 -41.75 38 -43.1875 C 34.90625 -44.632812 32.617188 -45.726562 31.140625 -46.46875 C 24.960938 -49.507812 20.179688 -53.316406 16.796875 -57.890625 C 13.421875 -62.460938 11.734375 -67.382812 11.734375 -72.65625 C 11.734375 -81.800781 15.109375 -89.28125 21.859375 -95.09375 C 28.617188 -100.90625 36.328125 -103.8125 44.984375 -103.8125 Z M 44.984375 -103.8125 "/></g></g></g><g fill="#ffffff" fill-opacity="1"><g transform="translate(374.095716, 209.569746)"><g><path d="M 30.640625 -101.953125 L 30.640625 0 L 7.421875 0 L 7.421875 -101.953125 Z M 30.640625 -101.953125 "/></g></g></g><g fill="#ffffff" fill-opacity="1"><g transform="translate(412.157677, 209.569746)"><g><path d="M 99.609375 -57.09375 L 99.609375 -34.96875 C 96.972656 -22.863281 91.203125 -13.695312 82.296875 -7.46875 C 73.398438 -1.25 63.472656 1.859375 52.515625 1.859375 C 38.765625 1.859375 27.046875 -3.289062 17.359375 -13.59375 C 7.679688 -23.894531 2.84375 -36.335938 2.84375 -50.921875 C 2.84375 -65.742188 7.578125 -78.265625 17.046875 -88.484375 C 26.523438 -98.703125 38.347656 -103.8125 52.515625 -103.8125 C 69.078125 -103.8125 82.175781 -98 91.8125 -86.375 L 76.625 -69.703125 C 71.1875 -78.429688 63.601562 -82.796875 53.875 -82.796875 C 46.707031 -82.796875 40.585938 -79.6875 35.515625 -73.46875 C 30.453125 -67.25 27.921875 -59.734375 27.921875 -50.921875 C 27.921875 -42.265625 30.453125 -34.867188 35.515625 -28.734375 C 40.585938 -22.597656 46.707031 -19.53125 53.875 -19.53125 C 59.8125 -19.53125 64.984375 -21.320312 69.390625 -24.90625 C 73.796875 -28.488281 76 -33.242188 76 -39.171875 L 52.515625 -39.171875 L 52.515625 -57.09375 Z M 99.609375 -57.09375 "/></g></g></g><g fill="#ffffff" fill-opacity="1"><g transform="translate(514.603731, 209.569746)"><g><path d="M 30.640625 -40.90625 L 30.640625 0 L 7.421875 0 L 7.421875 -101.953125 L 30.640625 -101.953125 L 30.640625 -61.296875 L 63.515625 -61.296875 L 63.515625 -101.953125 L 86.75 -101.953125 L 86.75 0 L 63.515625 0 L 63.515625 -40.90625 Z M 30.640625 -40.90625 "/></g></g></g><g fill="#ffffff" fill-opacity="1"><g transform="translate(608.770027, 209.569746)"><g><path d="M 0.984375 -81.5625 L 0.984375 -101.953125 L 72.65625 -101.953125 L 72.65625 -81.5625 L 48.4375 -81.5625 L 48.4375 0 L 25.203125 0 L 25.203125 -81.5625 Z M 0.984375 -81.5625 "/></g></g></g><g fill="#ff914d" fill-opacity="1"><g transform="translate(612.026882, 104.636551)"><g><path d="M 25.640625 -14.703125 L 25.640625 -9 C 24.960938 -5.882812 23.476562 -3.523438 21.1875 -1.921875 C 18.894531 -0.316406 16.335938 0.484375 13.515625 0.484375 C 9.972656 0.484375 6.957031 -0.835938 4.46875 -3.484375 C 1.976562 -6.140625 0.734375 -9.347656 0.734375 -13.109375 C 0.734375 -16.921875 1.953125 -20.140625 4.390625 -22.765625 C 6.828125 -25.398438 9.867188 -26.71875 13.515625 -26.71875 C 17.785156 -26.71875 21.160156 -25.222656 23.640625 -22.234375 L 19.71875 -17.9375 C 18.320312 -20.1875 16.375 -21.3125 13.875 -21.3125 C 12.03125 -21.3125 10.453125 -20.507812 9.140625 -18.90625 C 7.835938 -17.3125 7.1875 -15.378906 7.1875 -13.109375 C 7.1875 -10.878906 7.835938 -8.972656 9.140625 -7.390625 C 10.453125 -5.816406 12.03125 -5.03125 13.875 -5.03125 C 15.394531 -5.03125 16.722656 -5.488281 17.859375 -6.40625 C 18.992188 -7.332031 19.5625 -8.554688 19.5625 -10.078125 L 13.515625 -10.078125 L 13.515625 -14.703125 Z M 25.640625 -14.703125 "/></g></g></g><g fill="#ff914d" fill-opacity="1"><g transform="translate(638.871488, 104.636551)"><g><path d="M 1.90625 -26.25 L 11.484375 -26.25 C 14.160156 -26.25 16.320312 -25.554688 17.96875 -24.171875 C 19.625 -22.796875 20.453125 -20.789062 20.453125 -18.15625 C 20.453125 -15.53125 19.613281 -13.46875 17.9375 -11.96875 C 16.257812 -10.476562 14.109375 -9.734375 11.484375 -9.734375 L 7.890625 -9.734375 L 7.890625 0 L 1.90625 0 Z M 7.890625 -14.5 L 9.578125 -14.5 C 10.910156 -14.5 12.003906 -14.769531 12.859375 -15.3125 C 13.722656 -15.851562 14.15625 -16.738281 14.15625 -17.96875 C 14.15625 -19.21875 13.722656 -20.113281 12.859375 -20.65625 C 12.003906 -21.195312 10.910156 -21.46875 9.578125 -21.46875 L 7.890625 -21.46875 Z M 7.890625 -14.5 "/></g></g></g><g fill="#ff914d" fill-opacity="1"><g transform="translate(660.531701, 104.636551)"><g><path d="M 0.25 -21 L 0.25 -26.25 L 18.703125 -26.25 L 18.703125 -21 L 12.46875 -21 L 12.46875 0 L 6.484375 0 L 6.484375 -21 Z M 0.25 -21 "/></g></g></g></svg>