<svg viewBox="0 0 260 47" fill="none" xmlns="http://www.w3.org/2000/svg" xmlns:xlink="http://www.w3.org/1999/xlink" x="0" y="0"><path id="Vector_5" d="M1,10.812l4.3729,-1.963l4.3729,-3.867l4.3728,-3.982l4.3729,5.429l4.3729,1.202l4.3729,0.75l4.3729,7.476l4.3729,7.065l4.3728,-0.572l4.3729,-4.167l4.3729,-7.705l4.3729,-0.089l4.3729,7.335l4.3728,-7.624l4.3729,-2.105l4.3729,8.361l4.3729,3.456l4.373,-2.821l4.373,6.677l4.373,-2.05l4.373,3.924l4.372,-2.902l4.373,-7.535l4.373,4.948l4.373,7.114l4.373,-4.527l4.373,3.036l4.373,-6.198l4.373,-4.036l4.372,-0.454l4.373,-4.609l4.373,0.992l4.373,8.048l4.373,4.045l4.373,3.179l4.373,-6.582l4.373,-7.023l4.373,8.294l4.372,3.64l4.373,-4.299l4.373,-0.262l4.373,3.606l4.373,3.26l4.373,4.353l4.373,3.481l4.373,-3.772l4.372,-2.154l4.373,-0.401l4.373,4.395l4.373,-0.248l4.373,3.883l4.373,4.738l4.373,4.448l4.373,-1.168l4.372,-4.837l4.373,4.573l4.373,-0.177l4.373,-6.417l4.373,-3.903" stroke="#47D5A6" stroke-width="2"/></svg>