<svg viewBox="0 0 12.9626 7.67" fill="none" xmlns="http://www.w3.org/2000/svg" x="0" y="0"><path id="Vector_5" d="M6.4802,2.3363c0.707,0 1.385,0.281 1.886,0.781c0.5,0.5 0.781,1.179 0.781,1.886c0,0.707 -0.281,1.386 -0.781,1.886c-0.501,0.5 -1.179,0.781 -1.886,0.781c-0.707,0 -1.386,-0.281 -1.886,-0.781c-0.5,-0.5 -0.781,-1.179 -0.781,-1.886c0,-0.707 0.281,-1.386 0.781,-1.886c0.5,-0.5 1.179,-0.781 1.886,-0.781zM6.4802,0.0003c3.075,0 5.731,2.1 6.467,5.042c0.033,0.129 0.012,0.265 -0.056,0.379c-0.068,0.114 -0.178,0.196 -0.307,0.228c-0.129,0.032 -0.265,0.012 -0.379,-0.056c-0.113,-0.068 -0.195,-0.179 -0.228,-0.307c-0.308,-1.225 -1.016,-2.312 -2.012,-3.088c-0.997,-0.777 -2.223,-1.198 -3.486,-1.198c-1.263,0 -2.49,0.423 -3.486,1.199c-0.996,0.777 -1.703,1.864 -2.011,3.089c-0.035,0.126 -0.117,0.234 -0.23,0.3c-0.112,0.066 -0.247,0.085 -0.373,0.053c-0.127,-0.031 -0.236,-0.111 -0.305,-0.222c-0.068,-0.112 -0.091,-0.245 -0.062,-0.373c0.361,-1.441 1.194,-2.721 2.366,-3.635c1.172,-0.915 2.616,-1.411 4.102,-1.411z" fill="currentColor"/></svg>