<svg viewBox="0 0 24.43 25" fill="none" xmlns="http://www.w3.org/2000/svg" x="0" y="0"><defs><clipPath id="clip0_90_2">
<rect width="24.43" height="25" fill="white" transform="translate(0, 0)"/>
</clipPath></defs><g id="Google logo" clip-path="url(#clip0_90_2)">
<path id="Vector" d="M24.43,12.777c0,-1.025 -0.083,-1.773 -0.263,-2.548h-11.703v4.625h6.869c-0.138,1.15 -0.886,2.881 -2.548,4.044l-0.023,0.155l3.7,2.867l0.256,0.025c2.355,-2.174 3.712,-5.373 3.712,-9.168z" fill="#4285F4"/>
<path id="Vector_2" d="M12.464,24.964c3.366,0 6.191,-1.108 8.254,-3.019l-3.933,-3.047c-1.052,0.734 -2.465,1.247 -4.321,1.247c-3.296,0 -6.093,-2.175 -7.091,-5.18l-0.146,0.013l-3.847,2.977l-0.05,0.14c2.049,4.072 6.259,6.869 11.134,6.869z" fill="#34A853"/>
<path id="Vector_3" d="M5.373,14.965c-0.263,-0.775 -0.415,-1.606 -0.415,-2.465c0,-0.859 0.152,-1.69 0.402,-2.465l-0.007,-0.165l-3.896,-3.026l-0.127,0.061c-0.845,1.689 -1.33,3.587 -1.33,5.595c0,2.008 0.485,3.905 1.33,5.595z" fill="#FBBC05"/>
<path id="Vector_4" d="M12.464,4.855c2.341,0 3.92,1.011 4.82,1.856l3.517,-3.435c-2.16,-2.008 -4.971,-3.24 -8.337,-3.24c-4.875,0 -9.085,2.797 -11.134,6.869l4.03,3.13c1.011,-3.005 3.808,-5.18 7.104,-5.18z" fill="#EB4335"/>
</g></svg>