<svg viewBox="0 0 328 13.8861" fill="none" xmlns="http://www.w3.org/2000/svg" x="0" y="0"><g id="status bar">
<path id="battery outline (35% opacity)" opacity="0.35" d="M321,0.13c2.209,0 4,1.7909 4,4v5c0,2.2091 -1.791,4 -4,4h-20c-2.209,0 -4,-1.7909 -4,-4v-5c0,-2.2091 1.791,-4 4,-4zM301,1.13c-1.657,0 -3,1.3431 -3,3v5c0,1.6569 1.343,3 3,3h20c1.657,0 3,-1.3431 3,-3v-5c0,-1.6569 -1.343,-3 -3,-3zM326,4.13c1.212,0.4235 2,1.4086 2,2.5c0,1.0914 -0.788,2.0765 -2,2.5z" fill="currentColor"/>
<path id="status bar_2" d="M277.532,10.6373c1.615,-1.3657 3.981,-1.3654 5.596,0c0.081,0.0734 0.128,0.1777 0.131,0.2871c0.002,0.1095 -0.04,0.2153 -0.118,0.292l-2.531,2.5528c-0.074,0.0748 -0.175,0.1171 -0.28,0.1171c-0.105,-0.0001 -0.206,-0.0424 -0.28,-0.1171l-2.53,-2.5528c-0.078,-0.0767 -0.122,-0.1826 -0.12,-0.292c0.003,-0.1094 0.051,-0.2137 0.132,-0.2871zM244.375,9.0465c0.656,0 1.187,0.5318 1.187,1.1875v2.375c0,0.6557 -0.531,1.1875 -1.187,1.1875h-1.187c-0.656,0 -1.188,-0.5318 -1.188,-1.1875v-2.375c0,-0.6557 0.532,-1.1875 1.188,-1.1875zM249.917,6.6715c0.656,0.0001 1.187,0.5319 1.187,1.1875v4.75c0,0.6556 -0.531,1.1874 -1.187,1.1875h-1.188c-0.655,0 -1.187,-0.5318 -1.187,-1.1875v-4.75c0,-0.6557 0.532,-1.1875 1.187,-1.1875zM255.458,3.9c0.656,0 1.187,0.532 1.188,1.1875v7.5215c-0.001,0.6557 -0.532,1.1875 -1.188,1.1875h-1.187c-0.656,-0.0001 -1.188,-0.5319 -1.188,-1.1875v-7.5215c0,-0.6554 0.532,-1.1873 1.188,-1.1875zM261,1.1295c0.656,0 1.187,0.5319 1.188,1.1875v10.292c-0.001,0.6557 -0.532,1.1875 -1.188,1.1875h-1.188c-0.655,0 -1.187,-0.5318 -1.187,-1.1875v-10.292c0,-0.6556 0.532,-1.1875 1.187,-1.1875zM4.3818,0.9069c1.725,0 3.0908,0.8168 3.8838,2.3291c0.5478,0.9728 0.834,2.2324 0.834,3.7285c0,3.9733 -1.7828,6.3193 -4.7832,6.3193c-2.1582,-0.0001 -3.8018,-1.2754 -4.1533,-3.2129h2.1015c0.2698,0.8911 1.0547,1.4473 2.0684,1.4473c1.725,0 2.7471,-1.6107 2.7471,-4.3086h-0.1387c-0.5559,1.1199 -1.6761,1.7655 -3.0576,1.7656c-2.2483,0 -3.8838,-1.651 -3.8838,-3.9238c0,-2.4199 1.8149,-4.1444 4.3818,-4.1445zM23.6113,9.0162h1.5948v1.7823h-1.5948v2.1992h-2.0195v-2.1992h-5.7637v-1.8799c1.0628,-1.954 2.7229,-4.5784 4.8076,-7.7178h2.9756zM32,12.9977h-2.1094v-9.6709h-0.1386l-2.9356,2.0595v-2.0273l3.082,-2.1582h2.1016zM12.4678,9.1637c0.7766,0 1.3086,0.548 1.3086,1.292c-0.0002,0.7357 -0.532,1.291 -1.3086,1.291c-0.7683,-0.0001 -1.3075,-0.5554 -1.3076,-1.291c0,-0.7439 0.5392,-1.2919 1.3076,-1.292zM321,2.1295c1.104,0 2,0.8956 2,2v5c0,1.1046 -0.895,2 -2,2h-20c-1.105,0 -2,-0.8954 -2,-2v-5c0,-1.1044 0.896,-2 2,-2zM274.156,7.2321c3.48,-3.237 8.87,-3.2365 12.35,0c0.078,0.0758 0.124,0.1809 0.125,0.29c0.001,0.1091 -0.041,0.2146 -0.118,0.292l-1.463,1.4765c-0.151,0.1509 -0.394,0.1547 -0.549,0.0079c-1.143,-1.0346 -2.629,-1.6085 -4.171,-1.6084c-1.541,0.0007 -3.027,0.5742 -4.169,1.6084c-0.154,0.1466 -0.398,0.1429 -0.549,-0.0079l-1.462,-1.4765c-0.076,-0.0773 -0.119,-0.183 -0.118,-0.292c0.001,-0.1091 0.046,-0.2142 0.124,-0.29zM21.5107,2.9176c-1.1282,1.6678 -2.355,3.6054 -3.7285,6.0254v0.123h3.8428v-6.1484zM4.3984,2.6637c-1.3162,0 -2.33,1.006 -2.33,2.3223c0,1.3489 0.9651,2.3134 2.3222,2.3134c1.3486,-0.0002 2.3377,-0.9644 2.3379,-2.2802c0,-1.3326 -1.0138,-2.3555 -2.3301,-2.3555zM270.781,3.8365c5.338,-5.1154 13.759,-5.1151 19.097,0c0.077,0.0759 0.121,0.1799 0.122,0.2881c0.001,0.1084 -0.043,0.2122 -0.119,0.2891l-1.464,1.4775c-0.151,0.1515 -0.395,0.1531 -0.548,0.0039c-2.034,-1.9332 -4.733,-3.0115 -7.539,-3.0117c-2.806,0.0001 -5.506,1.0782 -7.54,3.0117c-0.153,0.1495 -0.398,0.148 -0.549,-0.0039l-1.464,-1.4775c-0.076,-0.0769 -0.118,-0.181 -0.118,-0.2891c0.001,-0.1082 0.045,-0.2122 0.122,-0.2881zM12.4678,3.0406c0.7765,0 1.3084,0.5472 1.3086,1.2911c0,0.7358 -0.532,1.2841 -1.3086,1.2841c-0.7684,-0.0001 -1.3076,-0.5484 -1.3076,-1.2841c0.0001,-0.7438 0.5393,-1.2909 1.3076,-1.2911z" fill="currentColor"/>
</g></svg>