<svg viewBox="0 0 12.6667 13.3333" fill="none" xmlns="http://www.w3.org/2000/svg" xmlns:xlink="http://www.w3.org/1999/xlink" x="0" y="0"><path id="Vector_6" d="M9.333,1.3337c-0.176,0 -0.346,-0.071 -0.471,-0.196c-0.125,-0.125 -0.195,-0.294 -0.195,-0.471c0,-0.177 0.07,-0.346 0.195,-0.471c0.125,-0.125 0.295,-0.196 0.471,-0.196h2.667c0.177,0 0.346,0.071 0.471,0.196c0.125,0.125 0.196,0.294 0.196,0.471v2.667c0,0.176 -0.071,0.346 -0.196,0.471c-0.125,0.125 -0.294,0.195 -0.471,0.195c-0.177,0 -0.346,-0.07 -0.471,-0.195c-0.125,-0.125 -0.196,-0.295 -0.196,-0.471v-1.058l-3.862,3.862c-0.125,0.125 -0.294,0.196 -0.471,0.196c-0.177,0 -0.346,-0.071 -0.471,-0.196l-1.862,-1.862l-3.529,3.529c-0.126,0.121 -0.294,0.189 -0.469,0.187c-0.175,-0.001 -0.342,-0.072 -0.466,-0.195c-0.123,-0.124 -0.193,-0.291 -0.195,-0.466c-0.001,-0.175 0.066,-0.343 0.187,-0.469l4,-4c0.125,-0.125 0.295,-0.195 0.472,-0.195c0.176,0 0.346,0.07 0.471,0.195l1.862,1.862l3.391,-3.39zM1.333,10.6667v2c0,0.177 -0.07,0.346 -0.195,0.471c-0.125,0.125 -0.295,0.196 -0.471,0.196c-0.177,0 -0.347,-0.071 -0.472,-0.196c-0.125,-0.125 -0.195,-0.294 -0.195,-0.471v-2c0,-0.177 0.07,-0.346 0.195,-0.471c0.125,-0.125 0.295,-0.196 0.472,-0.196c0.176,0 0.346,0.071 0.471,0.196c0.125,0.125 0.195,0.294 0.195,0.471zM4.667,7.9997c0,-0.176 -0.071,-0.346 -0.196,-0.471c-0.125,-0.125 -0.294,-0.195 -0.471,-0.195c-0.177,0 -0.346,0.07 -0.471,0.195c-0.125,0.125 -0.196,0.295 -0.196,0.471v4.667c0,0.177 0.071,0.346 0.196,0.471c0.125,0.125 0.294,0.196 0.471,0.196c0.177,0 0.346,-0.071 0.471,-0.196c0.125,-0.125 0.196,-0.294 0.196,-0.471zM7.333,8.6667c0.177,0 0.347,0.07 0.472,0.195c0.125,0.125 0.195,0.295 0.195,0.472v3.333c0,0.177 -0.07,0.346 -0.195,0.471c-0.125,0.125 -0.295,0.196 -0.472,0.196c-0.176,0 -0.346,-0.071 -0.471,-0.196c-0.125,-0.125 -0.195,-0.294 -0.195,-0.471v-3.333c0,-0.177 0.07,-0.347 0.195,-0.472c0.125,-0.125 0.295,-0.195 0.471,-0.195zM11.333,5.9997c0,-0.176 -0.07,-0.346 -0.195,-0.471c-0.125,-0.125 -0.295,-0.195 -0.471,-0.195c-0.177,0 -0.347,0.07 -0.472,0.195c-0.125,0.125 -0.195,0.295 -0.195,0.471v6.667c0,0.177 0.07,0.346 0.195,0.471c0.125,0.125 0.295,0.196 0.472,0.196c0.176,0 0.346,-0.071 0.471,-0.196c0.125,-0.125 0.195,-0.294 0.195,-0.471z" fill="currentColor"/></svg>