<svg viewBox="0 0 52 24" fill="none" xmlns="http://www.w3.org/2000/svg" xmlns:xlink="http://www.w3.org/1999/xlink" x="0" y="0"><g id="Frame 427321606">
<g id="Frame 427321610">
<rect x="0" y="0" width="24" height="24" rx="2" fill="#47D5A6"/>
<g id="Frame_6">
<path id="Vector_7" d="M13.293,7.333l3.374,3.374l-0.641,0.641c-0.627,-0.052 -1.259,0.033 -1.85,0.25c-0.591,0.216 -1.128,0.559 -1.573,1.004c-0.445,0.446 -0.788,0.982 -1.005,1.574c-0.216,0.591 -0.301,1.222 -0.249,1.849l-1.307,1.307c-0.185,0.185 -0.414,0.318 -0.667,0.387l-3.41,0.93c-0.084,0.023 -0.174,0.023 -0.259,0c-0.085,-0.022 -0.163,-0.067 -0.225,-0.129c-0.062,-0.063 -0.107,-0.14 -0.129,-0.225c-0.023,-0.085 -0.023,-0.175 0,-0.26l0.929,-3.41c0.069,-0.252 0.202,-0.482 0.387,-0.667zM18.021,5.98c0.447,0.447 0.698,1.054 0.698,1.687c0,0.632 -0.251,1.239 -0.698,1.686l-0.647,0.647l-3.374,-3.373l0.647,-0.647c0.221,-0.222 0.484,-0.397 0.774,-0.517c0.289,-0.12 0.599,-0.182 0.913,-0.182c0.313,0 0.623,0.062 0.913,0.182c0.289,0.12 0.552,0.295 0.774,0.517zM13.52,13.316c0.05,0.172 0.064,0.353 0.043,0.531c-0.022,0.178 -0.079,0.35 -0.169,0.506c-0.09,0.155 -0.21,0.291 -0.353,0.399c-0.144,0.108 -0.307,0.186 -0.482,0.229l-0.389,0.096c-0.062,0.399 -0.061,0.806 0.004,1.204l0.36,0.087c0.176,0.042 0.341,0.12 0.486,0.228c0.145,0.108 0.266,0.245 0.356,0.401c0.091,0.157 0.148,0.33 0.17,0.51c0.021,0.179 0.006,0.361 -0.045,0.534l-0.125,0.422c0.293,0.257 0.627,0.466 0.989,0.614l0.33,-0.346c0.124,-0.131 0.274,-0.235 0.44,-0.306c0.166,-0.072 0.345,-0.108 0.526,-0.108c0.181,0 0.36,0.036 0.526,0.108c0.166,0.071 0.316,0.175 0.44,0.306l0.332,0.35c0.361,-0.146 0.696,-0.352 0.989,-0.608l-0.132,-0.458c-0.05,-0.172 -0.064,-0.353 -0.042,-0.531c0.021,-0.178 0.079,-0.35 0.169,-0.505c0.089,-0.156 0.21,-0.291 0.353,-0.399c0.144,-0.108 0.307,-0.186 0.481,-0.229l0.389,-0.096c0.063,-0.399 0.061,-0.806 -0.004,-1.205l-0.36,-0.087c-0.176,-0.042 -0.341,-0.12 -0.486,-0.228c-0.144,-0.108 -0.266,-0.244 -0.356,-0.401c-0.091,-0.156 -0.148,-0.33 -0.17,-0.509c-0.021,-0.18 -0.006,-0.362 0.045,-0.535l0.125,-0.42c-0.293,-0.259 -0.628,-0.467 -0.989,-0.615l-0.329,0.346c-0.124,0.131 -0.274,0.235 -0.441,0.307c-0.166,0.071 -0.345,0.108 -0.526,0.108c-0.18,0 -0.359,-0.037 -0.526,-0.108c-0.166,-0.072 -0.316,-0.176 -0.44,-0.307l-0.332,-0.35c-0.363,0.146 -0.696,0.353 -0.989,0.608zM15.667,16.667c-0.533,0 -0.966,-0.448 -0.966,-1c0,-0.553 0.433,-1 0.966,-1c0.534,0 0.967,0.447 0.967,1c0,0.552 -0.433,1 -0.967,1z" fill="white"/>
</g>
</g>
<g id="Frame 427321611_2">
<rect x="28" y="0" width="24" height="24" rx="2" fill="#282828"/>
<g id="close-line">
<path id="Vector_8" d="M40,11.058l3.3,-3.3l0.942,0.943l-3.299,3.299l3.299,3.3l-0.942,0.943l-3.3,-3.3l-3.3,3.3l-0.943,-0.943l3.3,-3.3l-3.3,-3.299l0.943,-0.943z" fill="white"/>
</g>
</g>
</g></svg>