<svg viewBox="0 0 12.3325 12.3324" fill="none" xmlns="http://www.w3.org/2000/svg" xmlns:xlink="http://www.w3.org/1999/xlink" x="0" y="0"><path id="Vector_4" d="M10.0003,5.0001c0,-1.128 -0.382,-2.223 -1.083,-3.107c-0.701,-0.884 -1.68,-1.505 -2.778,-1.762c-1.099,-0.257 -2.252,-0.135 -3.272,0.347c-1.02,0.481 -1.848,1.293 -2.348,2.304c-0.501,1.011 -0.645,2.161 -0.408,3.264c0.236,1.103 0.838,2.094 1.708,2.812c0.871,0.717 1.958,1.12 3.086,1.141c1.128,0.021 2.23,-0.339 3.127,-1.023l3.163,3.162l0.063,0.055c0.134,0.104 0.302,0.152 0.471,0.136c0.168,-0.016 0.325,-0.095 0.437,-0.222c0.112,-0.128 0.171,-0.292 0.166,-0.462c-0.005,-0.169 -0.075,-0.33 -0.194,-0.45l-3.162,-3.163c0.665,-0.871 1.025,-1.937 1.024,-3.032zM7.3333,4.3331c0.177,0 0.346,0.07 0.471,0.195c0.126,0.125 0.196,0.295 0.196,0.472c0,0.176 -0.07,0.346 -0.196,0.471c-0.125,0.125 -0.294,0.195 -0.471,0.195h-4.667c-0.176,0 -0.346,-0.07 -0.471,-0.195c-0.125,-0.125 -0.195,-0.295 -0.195,-0.471c0,-0.177 0.07,-0.347 0.195,-0.472c0.125,-0.125 0.295,-0.195 0.471,-0.195z" fill="currentColor"/></svg>