<svg viewBox="0 0 13.3333 12.3313" fill="none" xmlns="http://www.w3.org/2000/svg" xmlns:xlink="http://www.w3.org/1999/xlink" x="0" y="0"><path id="Vector_2" d="M7.95,0.0004c0.2613,0 0.5181,0.068 0.745,0.198c0.2269,0.129 0.4159,0.316 0.5483,0.542l0.5427,0.924h1.3806c0.2845,0 0.5663,0.056 0.8292,0.165c0.2628,0.109 0.5017,0.269 0.7029,0.47c0.2012,0.201 0.3608,0.44 0.4697,0.703c0.1088,0.263 0.1649,0.544 0.1649,0.829v6.333c0,0.285 -0.0561,0.567 -0.1649,0.829c-0.1089,0.263 -0.2685,0.502 -0.4697,0.703c-0.2012,0.202 -0.4401,0.361 -0.7029,0.47c-0.2629,0.109 -0.5447,0.165 -0.8292,0.165h-9c-0.5746,0 -1.1257,-0.228 -1.532,-0.635c-0.4064,-0.406 -0.6346,-0.957 -0.6346,-1.532v-6.333c0,-0.575 0.2282,-1.126 0.6346,-1.532c0.4063,-0.406 0.9574,-0.635 1.532,-0.635h1.3867l0.5833,-0.949c0.1341,-0.219 0.322,-0.399 0.5458,-0.524c0.2237,-0.126 0.4758,-0.191 0.7322,-0.191zM6.6666,3.6644c-0.7956,0 -1.5587,0.316 -2.1213,0.879c-0.5626,0.563 -0.8787,1.326 -0.8787,2.121c0,0.796 0.3161,1.559 0.8787,2.122c0.5626,0.562 1.3257,0.878 2.1213,0.878c0.7957,0 1.5587,-0.316 2.1213,-0.878c0.5626,-0.563 0.8787,-1.326 0.8787,-2.122c0,-0.795 -0.3161,-1.558 -0.8787,-2.121c-0.5626,-0.563 -1.3256,-0.879 -2.1213,-0.879zM6.6666,4.6644c0.2627,0 0.5227,0.052 0.7654,0.153c0.2426,0.1 0.4631,0.247 0.6488,0.433c0.1857,0.186 0.3331,0.406 0.4336,0.649c0.1005,0.243 0.1522,0.503 0.1522,0.765c0,0.263 -0.0517,0.523 -0.1522,0.766c-0.1005,0.242 -0.2479,0.463 -0.4336,0.649c-0.1857,0.185 -0.4062,0.333 -0.6488,0.433c-0.2427,0.101 -0.5027,0.152 -0.7654,0.152c-0.5304,0 -1.0391,-0.21 -1.4142,-0.585c-0.3751,-0.376 -0.5858,-0.884 -0.5858,-1.415c0,-0.53 0.2107,-1.039 0.5858,-1.414c0.3751,-0.375 0.8838,-0.586 1.4142,-0.586z" fill="currentColor"/></svg>