<svg viewBox="0 0 439.0325 57" fill="none" xmlns="http://www.w3.org/2000/svg" xmlns:xlink="http://www.w3.org/1999/xlink" x="0" y="0"><g id="vol" opacity="0.5">
<g id="column_73">
<rect id="Rectangle 34624565" x="-1.854" y="48" width="5" height="9" fill="#E4472B"/>
</g>
<g id="column_74">
<rect id="Rectangle 34624565_2" x="4.85034" y="51" width="5" height="6" fill="#E4472B"/>
</g>
<g id="column_75">
<rect id="Rectangle 34624565_3" x="11.5549" y="31" width="5" height="26" fill="#E4472B"/>
</g>
<g id="column_76">
<rect id="Rectangle 34624565_4" x="18.2593" y="40" width="5" height="17" fill="#E4472B"/>
</g>
<g id="column_77">
<rect id="Rectangle 34624565_5" x="24.9636" y="37" width="5" height="20" fill="#E4472B"/>
</g>
<g id="column_78">
<rect id="Rectangle 34624565_6" x="31.668" y="19" width="5" height="38" fill="#47D5A6"/>
</g>
<g id="column_79">
<rect id="Rectangle 34624565_7" x="38.3723" y="48" width="5" height="9" fill="#E4472B"/>
</g>
<g id="column_80">
<rect id="Rectangle 34624565_8" x="45.0767" y="16" width="5" height="41" fill="#47D5A6"/>
</g>
<g id="column_81">
<rect id="Rectangle 34624565_9" x="51.781" y="35" width="5" height="22" fill="#47D5A6"/>
</g>
<g id="column_82">
<rect id="Rectangle 34624565_10" x="58.4854" y="40" width="5" height="17" fill="#E4472B"/>
</g>
<g id="column_83">
<rect id="Rectangle 34624565_11" x="65.1899" y="44" width="5" height="13" fill="#E4472B"/>
</g>
<g id="column_84">
<rect id="Rectangle 34624565_12" x="71.8943" y="37" width="5" height="20" fill="#E4472B"/>
</g>
<g id="column_85">
<rect id="Rectangle 34624565_13" x="78.5986" y="32" width="5" height="25" fill="#E4472B"/>
</g>
<g id="column_86">
<rect id="Rectangle 34624565_14" x="85.303" y="47" width="5" height="10" fill="#E4472B"/>
</g>
<g id="column_87">
<rect id="Rectangle 34624565_15" x="92.0073" y="32" width="5" height="25" fill="#47D5A6"/>
</g>
<g id="column_88">
<rect id="Rectangle 34624565_16" x="98.7117" y="27" width="5" height="30" fill="#47D5A6"/>
</g>
<g id="column_89">
<rect id="Rectangle 34624565_17" x="105.416" y="50" width="5" height="7" fill="#47D5A6"/>
</g>
<g id="column_90">
<rect id="Rectangle 34624565_18" x="112.12" y="29" width="5" height="28" fill="#47D5A6"/>
</g>
<g id="column_91">
<rect id="Rectangle 34624565_19" x="118.825" y="44" width="5" height="13" fill="#E4472B"/>
</g>
<g id="column_92">
<rect id="Rectangle 34624565_20" x="125.529" y="50" width="5" height="7" fill="#47D5A6"/>
</g>
<g id="column_93">
<rect id="Rectangle 34624565_21" x="132.234" y="40" width="5" height="17" fill="#E4472B"/>
</g>
<g id="column_94">
<rect id="Rectangle 34624565_22" x="138.938" y="44" width="5" height="13" fill="#E4472B"/>
</g>
<g id="column_95">
<rect id="Rectangle 34624565_23" x="145.642" y="29" width="5" height="28" fill="#47D5A6"/>
</g>
<g id="column_96">
<rect id="Rectangle 34624565_24" x="152.347" y="52" width="5" height="5" fill="#47D5A6"/>
</g>
<g id="column_97">
<rect id="Rectangle 34624565_25" x="159.051" y="27" width="5" height="30" fill="#47D5A6"/>
</g>
<g id="column_98">
<rect id="Rectangle 34624565_26" x="165.756" y="36" width="5" height="21" fill="#47D5A6"/>
</g>
<g id="column_99">
<rect id="Rectangle 34624565_27" x="172.46" y="38" width="5" height="19" fill="#47D5A6"/>
</g>
<g id="column_100">
<rect id="Rectangle 34624565_28" x="179.164" y="14" width="5" height="43" fill="#47D5A6"/>
</g>
<g id="column_101">
<rect id="Rectangle 34624565_29" x="185.869" y="6" width="5" height="51" fill="#47D5A6"/>
</g>
<g id="column_102">
<rect id="Rectangle 34624565_30" x="192.573" y="22" width="5" height="35" fill="#47D5A6"/>
</g>
<g id="column_103">
<rect id="Rectangle 34624565_31" x="199.277" y="35" width="5" height="22" fill="#47D5A6"/>
</g>
<g id="column_104">
<rect id="Rectangle 34624565_32" x="205.982" y="48" width="5" height="9" fill="#E4472B"/>
</g>
<g id="column_105">
<rect id="Rectangle 34624565_33" x="212.686" y="40" width="5" height="17" fill="#E4472B"/>
</g>
<g id="column_106">
<rect id="Rectangle 34624565_34" x="219.39" y="37" width="5" height="20" fill="#E4472B"/>
</g>
<g id="column_107">
<rect id="Rectangle 34624565_35" x="226.095" y="29" width="5" height="28" fill="#E4472B"/>
</g>
<g id="column_108">
<rect id="Rectangle 34624565_36" x="232.799" y="35" width="5" height="22" fill="#47D5A6"/>
</g>
<g id="column_109">
<rect id="Rectangle 34624565_37" x="239.504" y="51" width="5" height="6" fill="#47D5A6"/>
</g>
<g id="column_110">
<rect id="Rectangle 34624565_38" x="246.208" y="15" width="5" height="42" fill="#E4472B"/>
</g>
<g id="column_111">
<rect id="Rectangle 34624565_39" x="252.912" y="47" width="5" height="10" fill="#E4472B"/>
</g>
<g id="column_112">
<rect id="Rectangle 34624565_40" x="259.617" y="50" width="5" height="7" fill="#E4472B"/>
</g>
<g id="column_113">
<rect id="Rectangle 34624565_41" x="266.321" y="52" width="5" height="5" fill="#E4472B"/>
</g>
<g id="column_114">
<rect id="Rectangle 34624565_42" x="273.026" y="21" width="5" height="36" fill="#47D5A6"/>
</g>
<g id="column_115">
<rect id="Rectangle 34624565_43" x="279.73" y="36" width="5" height="21" fill="#47D5A6"/>
</g>
<g id="column_116">
<rect id="Rectangle 34624565_44" x="286.434" y="30" width="5" height="27" fill="#47D5A6"/>
</g>
<g id="column_117">
<rect id="Rectangle 34624565_45" x="293.139" y="48" width="5" height="9" fill="#E4472B"/>
</g>
<g id="column_118">
<rect id="Rectangle 34624565_46" x="299.843" y="49" width="5" height="8" fill="#47D5A6"/>
</g>
<g id="column_119">
<rect id="Rectangle 34624565_47" x="306.547" y="50" width="5" height="7" fill="#47D5A6"/>
</g>
<g id="column_120">
<rect id="Rectangle 34624565_48" x="313.252" y="46" width="5" height="11" fill="#47D5A6"/>
</g>
<g id="column_121">
<rect id="Rectangle 34624565_49" x="319.956" y="45" width="5" height="12" fill="#47D5A6"/>
</g>
<g id="column_122">
<rect id="Rectangle 34624565_50" x="326.66" y="46" width="5" height="11" fill="#47D5A6"/>
</g>
<g id="column_123">
<rect id="Rectangle 34624565_51" x="333.365" y="51" width="5" height="6" fill="#E4472B"/>
</g>
<g id="column_124">
<rect id="Rectangle 34624565_52" x="340.069" y="37" width="5" height="20" fill="#E4472B"/>
</g>
<g id="column_125">
<rect id="Rectangle 34624565_53" x="346.774" y="47" width="5" height="10" fill="#E4472B"/>
</g>
<g id="column_126">
<rect id="Rectangle 34624565_54" x="353.478" y="53" width="5" height="4" fill="#E4472B"/>
</g>
<g id="column_127">
<rect id="Rectangle 34624565_55" x="360.182" y="50" width="5" height="7" fill="#E4472B"/>
</g>
<g id="column_128">
<rect id="Rectangle 34624565_56" x="366.887" y="47" width="5" height="10" fill="#E4472B"/>
</g>
<g id="column_129">
<rect id="Rectangle 34624565_57" x="373.591" y="46" width="5" height="11" fill="#47D5A6"/>
</g>
<g id="column_130">
<rect id="Rectangle 34624565_58" x="380.296" y="32" width="5" height="25" fill="#E4472B"/>
</g>
<g id="column_131">
<rect id="Rectangle 34624565_59" x="387" y="48" width="5" height="9" fill="#E4472B"/>
</g>
<g id="column_132">
<rect id="Rectangle 34624565_60" x="393.704" y="47" width="5" height="10" fill="#E4472B"/>
</g>
<g id="column_133">
<rect id="Rectangle 34624565_61" x="400.409" y="50" width="5" height="7" fill="#47D5A6"/>
</g>
<g id="column_134">
<rect id="Rectangle 34624565_62" x="407.113" y="52" width="5" height="5" fill="#47D5A6"/>
</g>
<g id="column_135">
<rect id="Rectangle 34624565_63" x="413.817" y="48" width="5" height="9" fill="#E4472B"/>
</g>
<g id="column_136">
<rect id="Rectangle 34624565_64" x="420.522" y="46" width="5" height="11" fill="#47D5A6"/>
</g>
<g id="column_137">
<rect id="Rectangle 34624565_65" x="427.226" y="43" width="5" height="14" fill="#47D5A6"/>
</g>
<g id="column_138">
<rect id="Rectangle 34624565_66" x="433.93" y="40" width="5" height="17" fill="#47D5A6"/>
</g>
</g></svg>