<svg viewBox="0 0 12.3325 12.3324" fill="none" xmlns="http://www.w3.org/2000/svg" xmlns:xlink="http://www.w3.org/1999/xlink" x="0" y="0"><path id="Vector_3" d="M10.0001,5.0001c0,1.14 -0.3814,2.191 -1.024,3.032l3.1622,3.163c0.119,0.12 0.189,0.281 0.194,0.45c0.005,0.17 -0.054,0.334 -0.166,0.462c-0.112,0.127 -0.269,0.206 -0.437,0.222c-0.169,0.016 -0.337,-0.032 -0.471,-0.136l-0.063,-0.055l-3.1632,-3.162c-0.897,0.684 -1.999,1.044 -3.1268,1.023c-1.1279,-0.021 -2.2154,-0.424 -3.0858,-1.141c-0.8704,-0.718 -1.4726,-1.709 -1.7087,-2.812c-0.2361,-1.103 -0.0923,-2.253 0.4081,-3.264c0.5004,-1.011 1.328,-1.823 2.3483,-2.304c1.0203,-0.482 2.1733,-0.604 3.2717,-0.347c1.0984,0.257 2.0777,0.878 2.7786,1.762c0.701,0.884 1.0825,1.979 1.0826,3.107zM5.0001,2.0001c-0.1769,0 -0.3464,0.07 -0.4715,0.195c-0.125,0.125 -0.1952,0.295 -0.1952,0.471v1.667h-1.6667c-0.1768,0 -0.3464,0.07 -0.4714,0.195c-0.125,0.125 -0.1952,0.295 -0.1952,0.472c0,0.176 0.0702,0.346 0.1952,0.471c0.125,0.125 0.2946,0.195 0.4714,0.195h1.6667v1.667c0,0.177 0.0702,0.346 0.1952,0.471c0.1251,0.125 0.2946,0.196 0.4715,0.196c0.1768,0 0.3463,-0.071 0.4714,-0.196c0.125,-0.125 0.1952,-0.294 0.1952,-0.471v-1.667h1.6667c0.1768,0 0.3464,-0.07 0.4714,-0.195c0.125,-0.125 0.1953,-0.295 0.1953,-0.471c0,-0.177 -0.0703,-0.347 -0.1953,-0.472c-0.125,-0.125 -0.2946,-0.195 -0.4714,-0.195h-1.6667v-1.667c0,-0.176 -0.0702,-0.346 -0.1952,-0.471c-0.1251,-0.125 -0.2946,-0.195 -0.4714,-0.195z" fill="currentColor"/></svg>