<svg viewBox="0 0 9.6667 10.6667" fill="none" xmlns="http://www.w3.org/2000/svg" xmlns:xlink="http://www.w3.org/1999/xlink" x="0" y="0"><path id="Vector_5" d="M0.0003,0.6663c0,-0.176 0.07,-0.346 0.195,-0.471c0.125,-0.125 0.295,-0.195 0.471,-0.195h8.334c0.177,0 0.346,0.07 0.471,0.195c0.125,0.125 0.195,0.295 0.195,0.471v1.334c0,0.176 -0.07,0.346 -0.195,0.471c-0.125,0.125 -0.294,0.195 -0.471,0.195c-0.177,0 -0.347,-0.07 -0.472,-0.195c-0.125,-0.125 -0.195,-0.295 -0.195,-0.471v-0.667h-2.833v8h0.666c0.177,0 0.347,0.07 0.472,0.195c0.125,0.125 0.195,0.295 0.195,0.472c0,0.176 -0.07,0.346 -0.195,0.471c-0.125,0.125 -0.295,0.195 -0.472,0.195h-2.666c-0.177,0 -0.347,-0.07 -0.472,-0.195c-0.125,-0.125 -0.195,-0.295 -0.195,-0.471c0,-0.177 0.07,-0.347 0.195,-0.472c0.125,-0.125 0.295,-0.195 0.472,-0.195h0.666v-8h-2.833v0.667c0,0.176 -0.07,0.346 -0.195,0.471c-0.125,0.125 -0.295,0.195 -0.472,0.195c-0.176,0 -0.346,-0.07 -0.471,-0.195c-0.125,-0.125 -0.195,-0.295 -0.195,-0.471z" fill="currentColor"/></svg>